<mxfile host="app.diagrams.net" modified="2021-01-29T01:39:25.432Z" agent="5.0 (Windows NT 10.0; Win64; x64) AppleWebKit/537.36 (KHTML, like Gecko) Chrome/87.0.4280.141 Safari/537.36" etag="4evn4MNPSLMHs-oldOhv" version="14.2.7" type="github">
  <diagram id="kgpKYQtTHZ0yAKxKKP6v" name="Page-1">
    <mxGraphModel dx="1082" dy="677" grid="1" gridSize="10" guides="1" tooltips="1" connect="1" arrows="1" fold="1" page="1" pageScale="1" pageWidth="850" pageHeight="1100" math="0" shadow="0">
      <root>
        <mxCell id="0" />
        <mxCell id="1" parent="0" />
        <mxCell id="3nuBFxr9cyL0pnOWT2aG-1" value="client-sdk" style="shape=umlLifeline;perimeter=lifelinePerimeter;container=1;collapsible=0;recursiveResize=0;rounded=0;shadow=0;strokeWidth=1;fontSize=14;" parent="1" vertex="1">
          <mxGeometry x="20" y="120" width="100" height="580" as="geometry" />
        </mxCell>
        <mxCell id="3nuBFxr9cyL0pnOWT2aG-2" value="" style="points=[];perimeter=orthogonalPerimeter;rounded=0;shadow=0;strokeWidth=1;" parent="3nuBFxr9cyL0pnOWT2aG-1" vertex="1">
          <mxGeometry x="45" y="70" width="10" height="410" as="geometry" />
        </mxCell>
        <mxCell id="7vAC2Yfg55R_S_MuXKiR-18" value="4. 发送断开请求" style="html=1;verticalAlign=bottom;endArrow=block;fontSize=14;" edge="1" parent="3nuBFxr9cyL0pnOWT2aG-1">
          <mxGeometry width="80" relative="1" as="geometry">
            <mxPoint x="60" y="340" as="sourcePoint" />
            <mxPoint x="370" y="340" as="targetPoint" />
          </mxGeometry>
        </mxCell>
        <mxCell id="3nuBFxr9cyL0pnOWT2aG-5" value="sc" style="shape=umlLifeline;perimeter=lifelinePerimeter;container=1;collapsible=0;recursiveResize=0;rounded=0;shadow=0;strokeWidth=1;fontSize=14;" parent="1" vertex="1">
          <mxGeometry x="350" y="120" width="100" height="570" as="geometry" />
        </mxCell>
        <mxCell id="3nuBFxr9cyL0pnOWT2aG-6" value="" style="points=[];perimeter=orthogonalPerimeter;rounded=0;shadow=0;strokeWidth=1;" parent="3nuBFxr9cyL0pnOWT2aG-5" vertex="1">
          <mxGeometry x="45" y="80" width="10" height="400" as="geometry" />
        </mxCell>
        <mxCell id="7vAC2Yfg55R_S_MuXKiR-6" value="1.1 给相应的实例续租" style="html=1;verticalAlign=bottom;endArrow=block;fontSize=14;" edge="1" parent="3nuBFxr9cyL0pnOWT2aG-5" target="7vAC2Yfg55R_S_MuXKiR-1">
          <mxGeometry width="80" relative="1" as="geometry">
            <mxPoint x="60" y="100" as="sourcePoint" />
            <mxPoint x="140" y="100" as="targetPoint" />
          </mxGeometry>
        </mxCell>
        <mxCell id="3nuBFxr9cyL0pnOWT2aG-8" value="1. 长连接发送一次serviceid &amp; instanceid" style="verticalAlign=bottom;endArrow=block;entryX=0;entryY=0;shadow=0;strokeWidth=1;fontSize=14;" parent="1" source="3nuBFxr9cyL0pnOWT2aG-2" target="3nuBFxr9cyL0pnOWT2aG-6" edge="1">
          <mxGeometry relative="1" as="geometry">
            <mxPoint x="175" y="200" as="sourcePoint" />
          </mxGeometry>
        </mxCell>
        <mxCell id="7vAC2Yfg55R_S_MuXKiR-1" value="&lt;font style=&quot;font-size: 14px&quot;&gt;db&lt;/font&gt;" style="shape=umlLifeline;perimeter=lifelinePerimeter;whiteSpace=wrap;html=1;container=1;collapsible=0;recursiveResize=0;outlineConnect=0;" vertex="1" parent="1">
          <mxGeometry x="650" y="120" width="100" height="580" as="geometry" />
        </mxCell>
        <mxCell id="7vAC2Yfg55R_S_MuXKiR-2" value="2. 返回相应消息" style="html=1;verticalAlign=bottom;endArrow=open;dashed=1;endSize=8;fontSize=14;" edge="1" parent="1">
          <mxGeometry relative="1" as="geometry">
            <mxPoint x="390" y="310" as="sourcePoint" />
            <mxPoint x="80" y="310.5" as="targetPoint" />
          </mxGeometry>
        </mxCell>
        <mxCell id="7vAC2Yfg55R_S_MuXKiR-3" value="" style="html=1;points=[];perimeter=orthogonalPerimeter;fontSize=14;" vertex="1" parent="1">
          <mxGeometry x="400" y="350" width="10" height="80" as="geometry" />
        </mxCell>
        <mxCell id="7vAC2Yfg55R_S_MuXKiR-7" value="1.2 返回相应消息" style="html=1;verticalAlign=bottom;endArrow=open;dashed=1;endSize=8;fontSize=14;" edge="1" parent="1">
          <mxGeometry x="-0.1348" relative="1" as="geometry">
            <mxPoint x="700" y="250" as="sourcePoint" />
            <mxPoint x="409" y="251" as="targetPoint" />
            <mxPoint as="offset" />
          </mxGeometry>
        </mxCell>
        <mxCell id="7vAC2Yfg55R_S_MuXKiR-10" value="1.3 建立session，并储存serviceid&amp;nbsp;&lt;br&gt;&amp;amp; instanceid" style="edgeStyle=orthogonalEdgeStyle;html=1;align=left;spacingLeft=2;endArrow=block;rounded=0;entryX=1;entryY=0;fontSize=14;" edge="1" parent="1">
          <mxGeometry x="0.0769" relative="1" as="geometry">
            <mxPoint x="410" y="270" as="sourcePoint" />
            <Array as="points">
              <mxPoint x="435" y="270" />
            </Array>
            <mxPoint x="415" y="290" as="targetPoint" />
            <mxPoint as="offset" />
          </mxGeometry>
        </mxCell>
        <mxCell id="7vAC2Yfg55R_S_MuXKiR-15" value="3.定时器定期去查询所以session&lt;br&gt;&amp;nbsp;更新所以实例信息" style="edgeStyle=orthogonalEdgeStyle;html=1;align=left;spacingLeft=2;endArrow=block;rounded=0;entryX=1;entryY=0;fontSize=14;" edge="1" parent="1">
          <mxGeometry x="0.0769" y="5" relative="1" as="geometry">
            <mxPoint x="410" y="330" as="sourcePoint" />
            <Array as="points">
              <mxPoint x="435" y="330" />
            </Array>
            <mxPoint x="415" y="350" as="targetPoint" />
            <mxPoint as="offset" />
          </mxGeometry>
        </mxCell>
        <mxCell id="7vAC2Yfg55R_S_MuXKiR-16" value="3.1 更新实例时间字段" style="html=1;verticalAlign=bottom;endArrow=block;fontSize=14;" edge="1" parent="1" target="7vAC2Yfg55R_S_MuXKiR-1">
          <mxGeometry width="80" relative="1" as="geometry">
            <mxPoint x="410" y="380" as="sourcePoint" />
            <mxPoint x="490" y="380" as="targetPoint" />
          </mxGeometry>
        </mxCell>
        <mxCell id="7vAC2Yfg55R_S_MuXKiR-17" value="3.2 返回相应消息" style="html=1;verticalAlign=bottom;endArrow=open;dashed=1;endSize=8;fontSize=14;" edge="1" parent="1">
          <mxGeometry relative="1" as="geometry">
            <mxPoint x="700" y="410" as="sourcePoint" />
            <mxPoint x="410" y="410" as="targetPoint" />
          </mxGeometry>
        </mxCell>
        <mxCell id="7vAC2Yfg55R_S_MuXKiR-19" value="6. 删除相关实例信息" style="html=1;verticalAlign=bottom;endArrow=block;fontSize=14;" edge="1" parent="1" target="7vAC2Yfg55R_S_MuXKiR-1">
          <mxGeometry x="-0.0328" y="9" width="80" relative="1" as="geometry">
            <mxPoint x="410" y="549" as="sourcePoint" />
            <mxPoint x="680" y="549" as="targetPoint" />
            <mxPoint as="offset" />
          </mxGeometry>
        </mxCell>
        <mxCell id="7vAC2Yfg55R_S_MuXKiR-20" value="5. 删除session，并根据&lt;br&gt;serviceid和instanceid删除实例" style="edgeStyle=orthogonalEdgeStyle;html=1;align=left;spacingLeft=2;endArrow=block;rounded=0;entryX=1;entryY=0;fontSize=14;" edge="1" parent="1">
          <mxGeometry x="0.0769" y="15" relative="1" as="geometry">
            <mxPoint x="410" y="480" as="sourcePoint" />
            <Array as="points">
              <mxPoint x="435" y="480" />
            </Array>
            <mxPoint x="415" y="500" as="targetPoint" />
            <mxPoint as="offset" />
          </mxGeometry>
        </mxCell>
        <mxCell id="7vAC2Yfg55R_S_MuXKiR-21" value="7. 返回相应消息" style="html=1;verticalAlign=bottom;endArrow=open;dashed=1;endSize=8;fontSize=14;" edge="1" parent="1">
          <mxGeometry relative="1" as="geometry">
            <mxPoint x="700" y="580" as="sourcePoint" />
            <mxPoint x="410" y="580" as="targetPoint" />
          </mxGeometry>
        </mxCell>
        <mxCell id="7vAC2Yfg55R_S_MuXKiR-22" value="8. 返回相应消息" style="html=1;verticalAlign=bottom;endArrow=open;dashed=1;endSize=8;fontSize=14;" edge="1" parent="1">
          <mxGeometry relative="1" as="geometry">
            <mxPoint x="390" y="590" as="sourcePoint" />
            <mxPoint x="80" y="590" as="targetPoint" />
          </mxGeometry>
        </mxCell>
      </root>
    </mxGraphModel>
  </diagram>
</mxfile>
